<svg xmlns="http://www.w3.org/2000/svg" xmlns:xlink="http://www.w3.org/1999/xlink" version="1.1" x="0px" y="0px" viewBox="0 0 100 125" enable-background="new 0 0 100 100" xml:space="preserve"><g><path d="M31.73,42.083h24.292c0.909,0,1.647-0.896,1.647-2s-0.737-2-1.647-2H31.73c-0.91,0-1.647,0.896-1.647,2   S30.821,42.083,31.73,42.083z"/><path d="M67.917,48.083h-29.5c-1.104,0-2,0.896-2,2s0.896,2,2,2h29.5c1.104,0,2-0.896,2-2S69.021,48.083,67.917,48.083z"/><path d="M56.023,57.917H31.73c-0.91,0-1.647,0.896-1.647,2s0.737,2,1.647,2h24.292c0.909,0,1.647-0.896,1.647-2   S56.932,57.917,56.023,57.917z"/></g><text x="0" y="115" fill="#000000" font-size="5px" font-weight="bold" font-family="'Helvetica Neue', Helvetica, Arial-Unicode, Arial, Sans-serif"></text><text x="0" y="120" fill="#000000" font-size="5px" font-weight="bold" font-family="'Helvetica Neue', Helvetica, Arial-Unicode, Arial, Sans-serif"></text></svg>