<svg id="Calque_1" data-name="Calque 1" xmlns="http://www.w3.org/2000/svg" viewBox="0 0 4004.86 1359.6"><defs><style>.cls-1,.cls-2{fill:#1d1d1b;}.cls-2{font-size:316.13px;font-family:CaviarDreams-Bold, Caviar Dreams;font-weight:700;letter-spacing:2.25em;}</style></defs><title>Logo Eternel SVG</title><path d="M561.17,953h-468V788h289V616H202l1.7-162H382.17V337h179Z"/><path class="cls-1" d="M640.69,122h369V299h-190V953h-179V122Z"/><path class="cls-1" d="M1025.36,122h468V287h-289V454h289V616h-289V788h289V953h-468Z"/><path class="cls-1" d="M1514.48,122h273.9q124.9,0,197.5,65.72t72.6,177.54q0,63.83-33.43,132.69T1901.9,606l233.58,347H1930.23L1713.48,631h-20V953h-179Zm180,148V486h38.93q141,0,141.07-114.32,0-46.73-36.71-74.2T1736,270Z"/><path class="cls-1" d="M2715.32,122h175V953H2716.86L2335.32,415V953h-179V122H2333l382.36,534Z"/><path class="cls-1" d="M2930.47,122h468V287h-289V454h289V616h-289V788h289V953h-468Z"/><path class="cls-1" d="M3437.79,122h178V774h245V953h-423Z"/><rect x="93.17" y="121.98" width="468" height="164.36"/><rect x="581.93" y="121.98" width="91.82" height="164.36"/><text class="cls-2" transform="translate(87.17 1272.71)">MEDIA</text></svg>